<?xml version="1.0" encoding="utf-8"?>
<!-- Generator: Adobe Illustrator 23.0.5, SVG Export Plug-In . SVG Version: 6.00 Build 0)  -->
<svg version="1.1" id="Layer_1" xmlns="http://www.w3.org/2000/svg" xmlns:xlink="http://www.w3.org/1999/xlink" x="0px" y="0px"
	 viewBox="0 0 250 250" style="enable-background:new 0 0 250 250;" xml:space="preserve">
<style type="text/css">
	.st0{clip-path:url(#SVGID_2_);fill:#FFFFFF;}
</style>
<g>
	<defs>
		<rect id="SVGID_1_" x="5.5" y="9.9" width="240" height="230.6"/>
	</defs>
	<clipPath id="SVGID_2_">
		<use xlink:href="#SVGID_1_"  style="overflow:visible;"/>
	</clipPath>
	<path class="st0" d="M125.5,9.9c-66.3,0-120,52.8-120,117.9c0,52.1,34.4,96.3,82.1,111.9c6,1.1,8.2-2.5,8.2-5.7
		c0-2.8-0.1-10.2-0.1-20.1c-33.4,7.1-40.4-15.8-40.4-15.8c-5.5-13.6-13.3-17.2-13.3-17.2c-10.9-7.3,0.8-7.2,0.8-7.2
		c12.1,0.8,18.4,12.2,18.4,12.2c10.7,18,28.1,12.8,35,9.8c1.1-7.6,4.2-12.8,7.6-15.8c-26.7-2.9-54.7-13.1-54.7-58.3
		c0-12.9,4.7-23.4,12.4-31.6c-1.4-3-5.4-15,1-31.2c0,0,10-3.2,33,12.1c9.6-2.6,19.8-3.9,30-4c10.2,0.1,20.4,1.4,30,4
		c22.8-15.3,32.9-12.1,32.9-12.1c6.5,16.2,2.4,28.2,1.2,31.2c7.7,8.2,12.3,18.8,12.3,31.6c0,45.3-28,55.3-54.7,58.2
		c4.2,3.5,8.1,10.8,8.1,21.8c0,15.8-0.2,28.5-0.2,32.3c0,3.1,2.1,6.8,8.3,5.6c48-15.5,82.4-59.7,82.4-111.7
		C245.5,62.7,191.8,9.9,125.5,9.9L125.5,9.9z M125.5,9.9"/>
</g>
</svg>
