<?xml version="1.0" encoding="utf-8"?>
<!-- Generator: Adobe Illustrator 23.0.5, SVG Export Plug-In . SVG Version: 6.00 Build 0)  -->
<svg version="1.1" id="Layer_1" xmlns="http://www.w3.org/2000/svg" xmlns:xlink="http://www.w3.org/1999/xlink" x="0px" y="0px"
	 viewBox="0 0 250 250" style="enable-background:new 0 0 250 250;" xml:space="preserve">
<style type="text/css">
	.st0{fill:#FFFFFF;}
</style>
<g>
	<path class="st0" d="M125.4,167.4c-1.5,0-3-0.5-4.2-1.4l-73.6-55v105.6h155.6V111l-73.6,55C128.3,166.9,126.8,167.4,125.4,167.4
		L125.4,167.4z M125.4,167.4"/>
	<path class="st0" d="M33.5,100.5l-28.1-21v116c0,11.6,9.5,21.1,21.1,21.1h7V100.5z M33.5,100.5"/>
	<path class="st0" d="M217.2,100.5v116.1h7c11.6,0,21.1-9.5,21.1-21.1v-116L217.2,100.5z M217.2,100.5"/>
	<path class="st0" d="M212.6,33.8H38.2l87.2,65.1L212.6,33.8z M212.6,33.8"/>
	<path class="st0" d="M233.3,35.8l-103.8,77.4c-1.2,0.9-2.7,1.4-4.2,1.4c-1.5,0-3-0.5-4.2-1.4L17.4,35.8c-7.1,3.4-12,10.7-12,19v7.9
		c1,0.2,2,0.6,2.8,1.3l117.2,87.5L242.5,64c0.9-0.6,1.8-1.1,2.8-1.3v-7.9C245.4,46.5,240.4,39.2,233.3,35.8L233.3,35.8z M233.3,35.8
		"/>
</g>
</svg>
