<?xml version="1.0" encoding="iso-8859-1"?>
<!-- Generator: Adobe Illustrator 23.0.5, SVG Export Plug-In . SVG Version: 6.00 Build 0)  -->
<svg version="1.1" id="Layer_1" xmlns="http://www.w3.org/2000/svg" xmlns:xlink="http://www.w3.org/1999/xlink" x="0px" y="0px"
	 viewBox="0 0 250 250" style="enable-background:new 0 0 250 250;" xml:space="preserve">
<g>
	<path style="fill:#FFFFFF;" d="M244.301,245.945v-0.01h0.061v-88.02c0-43.059-9.27-76.23-59.609-76.23
		c-24.202,0-40.439,13.281-47.071,25.869h-0.701V85.706H89.252v160.229h49.7v-79.341c0-20.889,3.96-41.089,29.829-41.089
		c25.491,0,25.872,23.84,25.872,42.429v78.01H244.301z M244.301,245.945"/>
	<rect x="8.322" y="85.716" style="fill:#FFFFFF;" width="49.761" height="160.229"/>
	<path style="fill:#FFFFFF;" d="M33.183,5.945c-15.911,0-28.821,12.91-28.821,28.821c0,15.908,12.91,29.089,28.821,29.089
		c15.908,0,28.819-13.181,28.819-29.089C61.992,18.855,49.082,5.945,33.183,5.945L33.183,5.945z M33.183,5.945"/>
</g>
</svg>
