<?xml version="1.0" encoding="iso-8859-1"?>
<!-- Generator: Adobe Illustrator 23.0.5, SVG Export Plug-In . SVG Version: 6.00 Build 0)  -->
<svg version="1.1" id="Capa_1" xmlns="http://www.w3.org/2000/svg" xmlns:xlink="http://www.w3.org/1999/xlink" x="0px" y="0px"
	 viewBox="82 272 250 250" style="enable-background:new 82 272 250 250;" xml:space="preserve">
<path style="fill:#FFFFFF;" d="M207.03,277h-0.06l0,0C140.805,277,87,330.82,87,397c0,26.25,8.46,50.58,22.845,70.335l-14.955,44.58
	l46.125-14.745C159.99,509.74,182.625,517,207.03,517C273.195,517,327,463.165,327,397S273.195,277,207.03,277z M276.855,446.455
	c-2.895,8.175-14.385,14.955-23.55,16.935c-6.27,1.335-14.46,2.4-42.03-9.03c-35.265-14.61-57.975-50.445-59.745-52.77
	c-1.695-2.325-14.25-18.975-14.25-36.195s8.745-25.605,12.27-29.205c2.895-2.955,7.68-4.305,12.27-4.305
	c1.485,0,2.82,0.075,4.02,0.135c3.525,0.15,5.295,0.36,7.62,5.925c2.895,6.975,9.945,24.195,10.785,25.965
	c0.855,1.77,1.71,4.17,0.51,6.495c-1.125,2.4-2.115,3.465-3.885,5.505c-1.77,2.04-3.45,3.6-5.22,5.79
	c-1.62,1.905-3.45,3.945-1.41,7.47c2.04,3.45,9.09,14.955,19.47,24.195c13.395,11.925,24.255,15.735,28.14,17.355
	c2.895,1.2,6.345,0.915,8.46-1.335c2.685-2.895,6-7.695,9.375-12.42c2.4-3.39,5.43-3.81,8.61-2.61
	c3.24,1.125,20.385,9.6,23.91,11.355c3.525,1.77,5.85,2.61,6.705,4.095C279.75,431.29,279.75,438.265,276.855,446.455z"/>
</svg>
