<?xml version="1.0" encoding="utf-8"?>
<!-- Generator: Adobe Illustrator 23.0.5, SVG Export Plug-In . SVG Version: 6.00 Build 0)  -->
<svg version="1.1" id="Capa_1" xmlns="http://www.w3.org/2000/svg" xmlns:xlink="http://www.w3.org/1999/xlink" x="0px" y="0px"
	 viewBox="0 0 461.4 461.4" style="enable-background:new 0 0 461.4 461.4;" xml:space="preserve">
<style type="text/css">
	.st0{fill:#E2E2E2;}
</style>
<g>
	<path class="st0" d="M420.1,86.1H41.3C18.5,86.1,0,104.7,0,127.5v206.4c0,22.8,18.5,41.3,41.3,41.3h378.7
		c22.8,0,41.3-18.5,41.3-41.3V127.5C461.4,104.7,442.8,86.1,420.1,86.1z M41.3,116.1h378.7c6.2,0,11.3,5.1,11.3,11.3v24.9H30v-24.9
		C30,121.2,35.1,116.1,41.3,116.1z M431.4,172.4v31H30v-31H431.4z M420.1,345.2H41.3c-6.2,0-11.3-5.1-11.3-11.3V223.4h401.4v110.5
		C431.4,340.2,426.3,345.2,420.1,345.2z"/>
	<path class="st0" d="M275.2,238.7c-5.9-5.9-15.4-5.9-21.2,0L230.7,262l-23.3-23.3c-5.9-5.9-15.4-5.9-21.2,0s-5.9,15.4,0,21.2
		l23.3,23.3l-23.3,23.3c-5.9,5.9-5.9,15.4,0,21.2c2.9,2.9,6.8,4.4,10.6,4.4s7.7-1.5,10.6-4.4l23.3-23.3l23.3,23.3
		c2.9,2.9,6.8,4.4,10.6,4.4s7.7-1.5,10.6-4.4c5.9-5.9,5.9-15.4,0-21.2l-23.3-23.3l23.3-23.3C281.1,254,281.1,244.5,275.2,238.7z"/>
</g>
</svg>
